<?xml version="1.0" standalone="no"?><!DOCTYPE svg PUBLIC "-//W3C//DTD SVG 1.1//EN" "http://www.w3.org/Graphics/SVG/1.1/DTD/svg11.dtd"><svg t="1585791885657" class="icon" viewBox="0 0 1024 1024" version="1.1" xmlns="http://www.w3.org/2000/svg" p-id="1118" xmlns:xlink="http://www.w3.org/1999/xlink" width="200" height="200"><defs><style type="text/css"></style></defs><path d="M827.3 577.9c0-63.5-24.7-123.2-69.6-168.1-43.3-43.3-101-68.1-162.3-69.6-0.6 0-1.2 0-1.8-0.1H311.4l78.3-78.3c12.4-12.4 12.4-32.6 0-45-12.4-12.4-32.5-12.3-45 0L207.3 354.2c-12.4 12.4-12.4 32.6 0 45l137.3 137.3c12.4 12.4 32.6 12.4 45 0 12.3-12.3 12.3-32.5 0-45L306 408h283.6c93.7 0 169.9 76.2 169.9 169.9s-76.2 169.9-169.9 169.9H353.1c-18.7 0-33.9 15.2-33.9 33.9s15.2 33.9 33.9 33.9h237.6c63-0.3 122.4-25 167.1-69.6 44.8-44.9 69.5-104.6 69.5-168.1z" p-id="1119" fill="#1296db"></path></svg>