<?xml version="1.0" standalone="no"?><!DOCTYPE svg PUBLIC "-//W3C//DTD SVG 1.1//EN" "http://www.w3.org/Graphics/SVG/1.1/DTD/svg11.dtd"><svg t="1585997940928" class="icon" viewBox="0 0 1024 1024" version="1.1" xmlns="http://www.w3.org/2000/svg" p-id="3574" xmlns:xlink="http://www.w3.org/1999/xlink" width="200" height="200"><defs><style type="text/css"></style></defs><path d="M877.2096 147.968h-11.5712V69.5808a38.4 38.4 0 0 0-76.8 0V147.968H235.264V69.5808a38.4 38.4 0 0 0-76.8 0V147.968h-11.6736A134.3488 134.3488 0 0 0 12.8 282.368v576a134.3488 134.3488 0 0 0 133.9904 134.4 38.4 38.4 0 0 0 0-76.8 57.4464 57.4464 0 0 1-57.1904-57.6V425.3184l844.8-4.0448v437.0944c0 31.744-25.6512 57.6-57.1904 57.6H351.2832a38.4 38.4 0 0 0 0 76.8h525.9264a134.3488 134.3488 0 0 0 133.9904-134.4V282.368a134.3488 134.3488 0 0 0-133.9904-134.4zM89.6 348.5184V282.368c0-31.744 25.6512-57.6 57.1904-57.6h11.9808c0.8704 20.4288 17.4592 36.8128 38.0928 36.8128s37.1712-16.384 38.0928-36.8128h554.24c0.8704 20.4288 17.4592 36.8128 38.0928 36.8128s37.1712-16.384 38.0928-36.8128h11.8784c31.5392 0 57.1904 25.856 57.1904 57.6v62.1056L89.6 348.5184z" fill="#438CFF" p-id="3575"></path><path d="M308.8896 588.8m-51.2 0a51.2 51.2 0 1 0 102.4 0 51.2 51.2 0 1 0-102.4 0Z" fill="#438CFF" p-id="3576"></path><path d="M512 588.8m-51.2 0a51.2 51.2 0 1 0 102.4 0 51.2 51.2 0 1 0-102.4 0Z" fill="#438CFF" p-id="3577"></path><path d="M718.3872 588.8m-51.2 0a51.2 51.2 0 1 0 102.4 0 51.2 51.2 0 1 0-102.4 0Z" fill="#438CFF" p-id="3578"></path><path d="M718.3872 743.9872m-51.2 0a51.2 51.2 0 1 0 102.4 0 51.2 51.2 0 1 0-102.4 0Z" fill="#438CFF" p-id="3579"></path><path d="M512 743.9872m-51.2 0a51.2 51.2 0 1 0 102.4 0 51.2 51.2 0 1 0-102.4 0Z" fill="#438CFF" p-id="3580"></path><path d="M308.8896 743.9872m-51.2 0a51.2 51.2 0 1 0 102.4 0 51.2 51.2 0 1 0-102.4 0Z" fill="#438CFF" p-id="3581"></path></svg>