<?xml version="1.0" standalone="no"?><!DOCTYPE svg PUBLIC "-//W3C//DTD SVG 1.1//EN" "http://www.w3.org/Graphics/SVG/1.1/DTD/svg11.dtd"><svg t="1585963646737" class="icon" viewBox="0 0 1025 1024" version="1.1" xmlns="http://www.w3.org/2000/svg" p-id="4393" xmlns:xlink="http://www.w3.org/1999/xlink" width="200.1953125" height="200"><defs><style type="text/css"></style></defs><path d="M1005.477018 396.96l-378.208-378.176c-14.432-14.496-33.792-20.096-52.736-18.528l-124.832 0c-18.944-1.568-38.304 4.032-52.736 18.528l-76.8 76.8 0-95.328-191.936 0 0 287.264-109.472 109.44c-14.496 14.496-20.064 33.824-18.496 52.736l0 126.4c0 35.328 28.608 64 63.968 64l63.968 0 0 319.904c0 35.328 28.608 64 64 64l639.84 0c35.36 0 64-28.64 64-64l0-319.904 63.968 0c35.36 0 64-28.64 64-64l0-126.4c1.568-18.912-4-38.24-18.496-52.736zM896.005018 512.128l-127.968 0 0 383.904-127.968 0 0-255.936-255.936 0 0 255.936-127.968 0 0-383.904-127.968 0 0-35.488 348.416-348.416 70.976 0 348.416 348.416 0 35.488z" p-id="4394" fill="#1195db"></path></svg>