<?xml version="1.0" standalone="no"?><!DOCTYPE svg PUBLIC "-//W3C//DTD SVG 1.1//EN" "http://www.w3.org/Graphics/SVG/1.1/DTD/svg11.dtd"><svg t="1585652288513" class="icon" viewBox="0 0 1024 1024" version="1.1" xmlns="http://www.w3.org/2000/svg" p-id="1089" xmlns:xlink="http://www.w3.org/1999/xlink" width="200" height="200"><defs><style type="text/css"></style></defs><path d="M511.445333 64c-217.429333 0-408.234667 158.549333-442.197333 380.074667-37.546667 244.522667 130.304 473.173333 374.826667 510.72 23.04 3.498667 45.909333 5.205333 68.48 5.205333 217.429333 0 408.234667-158.549333 442.197333-380.074667 37.546667-244.522667-130.304-473.173333-374.826667-510.72a451.584 451.584 0 0 0-68.48-5.205333m0 64c19.541333 0 39.253333 1.536 58.752 4.48a382.72 382.72 0 0 1 251.306667 152.32 382.72 382.72 0 0 1 69.973333 285.44 382.464 382.464 0 0 1-130.517333 234.026667 383.829333 383.829333 0 0 1-558.464-65.066667 382.72 382.72 0 0 1-69.973333-285.44A382.464 382.464 0 0 1 263.04 219.733333 383.829333 383.829333 0 0 1 511.445333 128" p-id="1090" fill="#1296db"></path><path d="M630.784 338.56a31.786667 31.786667 0 0 1-2.346667 44.970667l-71.850666 64.426666 75.434666 0.042667a32 32 0 0 1 0 64H544v39.978667h88.021333a32 32 0 0 1 0 64H544v64a32 32 0 0 1-64 0v-64H392.021333a32 32 0 0 1 0-64h87.978667V512H392.021333a32 32 0 0 1 0-64h75.392L395.52 383.573333a31.786667 31.786667 0 0 1-2.346667-45.013333 32.042667 32.042667 0 0 1 45.141334-2.389333L512 402.261333l73.642667-66.090666a32.042667 32.042667 0 0 1 45.141333 2.389333z" p-id="1091" fill="#1296db"></path></svg>