<?xml version="1.0" standalone="no"?><!DOCTYPE svg PUBLIC "-//W3C//DTD SVG 1.1//EN" "http://www.w3.org/Graphics/SVG/1.1/DTD/svg11.dtd"><svg t="1585885145640" class="icon" viewBox="0 0 1024 1024" version="1.1" xmlns="http://www.w3.org/2000/svg" p-id="1777" width="200" height="200" xmlns:xlink="http://www.w3.org/1999/xlink"><defs><style type="text/css"></style></defs><path d="M550.69 786.09h-56.72c-19.34 0-35.01 15.68-35.01 35.01s15.68 35.01 35.01 35.01h56.72c19.34 0 35.01-15.68 35.01-35.01s-15.67-35.01-35.01-35.01z" fill="#1195db" p-id="1778"></path><path d="M282.04 960.4h458.59c57.92 0 105.04-47.12 105.04-105.04V171.09c0-57.92-47.12-105.04-105.04-105.04H282.04C224.12 66.05 177 113.17 177 171.09v684.27c-0.01 57.92 47.12 105.04 105.04 105.04z m-35.02-789.31c0-19.31 15.71-35.01 35.01-35.01h458.59c19.31 0 35.01 15.71 35.01 35.01v684.27c0 19.31-15.71 35.01-35.01 35.01H282.04c-19.31 0-35.01-15.71-35.01-35.01V171.09z" fill="#1195db" p-id="1779"></path><path d="M312.8 767.52h397.07c20.35 0 36.91-16.56 36.91-36.9V199.04c0-20.35-16.56-36.91-36.91-36.91H312.8c-20.35 0-36.91 16.56-36.91 36.91v531.58c0 20.34 16.56 36.9 36.91 36.9z m33.12-535.36h330.82v465.33H345.92V232.16z" fill="#1195db" p-id="1780"></path></svg>